<mxfile host="65bd71144e">
    <diagram id="CnTmV9vUHMdbLL0xb0wE" name="Page-1">
        <mxGraphModel dx="516" dy="427" grid="0" gridSize="10" guides="1" tooltips="1" connect="1" arrows="1" fold="1" page="0" pageScale="1" pageWidth="850" pageHeight="1100" math="0" shadow="0">
            <root>
                <mxCell id="0"/>
                <mxCell id="1" parent="0"/>
                <mxCell id="2" value="Evento" style="shape=umlFrame;whiteSpace=wrap;html=1;" vertex="1" parent="1">
                    <mxGeometry x="145" y="89" width="520" height="1092" as="geometry"/>
                </mxCell>
                <mxCell id="3" value="user" style="shape=umlActor;verticalLabelPosition=bottom;verticalAlign=top;html=1;" vertex="1" parent="1">
                    <mxGeometry x="63" y="156" width="30" height="60" as="geometry"/>
                </mxCell>
                <mxCell id="4" value="s'inscrire" style="ellipse;whiteSpace=wrap;html=1;" vertex="1" parent="1">
                    <mxGeometry x="181" y="134" width="117" height="50" as="geometry"/>
                </mxCell>
                <mxCell id="5" value="connexion" style="ellipse;whiteSpace=wrap;html=1;" vertex="1" parent="1">
                    <mxGeometry x="180" y="194" width="117" height="50" as="geometry"/>
                </mxCell>
                <mxCell id="6" value="génere un ticket" style="ellipse;whiteSpace=wrap;html=1;" vertex="1" parent="1">
                    <mxGeometry x="187" y="542" width="117" height="50" as="geometry"/>
                </mxCell>
                <mxCell id="7" value="reserver une place" style="ellipse;whiteSpace=wrap;html=1;" vertex="1" parent="1">
                    <mxGeometry x="184" y="488" width="117" height="50" as="geometry"/>
                </mxCell>
                <mxCell id="8" value="chercher" style="ellipse;whiteSpace=wrap;html=1;" vertex="1" parent="1">
                    <mxGeometry x="183" y="429" width="117" height="50" as="geometry"/>
                </mxCell>
                <mxCell id="9" value="filter les événement" style="ellipse;whiteSpace=wrap;html=1;" vertex="1" parent="1">
                    <mxGeometry x="180" y="375" width="117" height="50" as="geometry"/>
                </mxCell>
                <mxCell id="10" value="consultation" style="ellipse;whiteSpace=wrap;html=1;" vertex="1" parent="1">
                    <mxGeometry x="177" y="318" width="117" height="50" as="geometry"/>
                </mxCell>
                <mxCell id="11" value="&lt;span style=&quot;font-family: &amp;quot;Nunito Sans&amp;quot;, sans-serif; font-size: 14px; text-align: start; white-space-collapse: preserve;&quot;&gt;&lt;font style=&quot;&quot; color=&quot;#ffffff&quot;&gt;réinitialiser mot de pass&lt;/font&gt;&lt;/span&gt;" style="ellipse;whiteSpace=wrap;html=1;" vertex="1" parent="1">
                    <mxGeometry x="173" y="246" width="131" height="64" as="geometry"/>
                </mxCell>
                <mxCell id="15" value="user" style="shape=umlActor;verticalLabelPosition=bottom;verticalAlign=top;html=1;" vertex="1" parent="1">
                    <mxGeometry x="63" y="266" width="30" height="60" as="geometry"/>
                </mxCell>
                <mxCell id="16" value="user" style="shape=umlActor;verticalLabelPosition=bottom;verticalAlign=top;html=1;" vertex="1" parent="1">
                    <mxGeometry x="63" y="397" width="30" height="60" as="geometry"/>
                </mxCell>
                <mxCell id="17" value="creer un nouvel event" style="ellipse;whiteSpace=wrap;html=1;labelBackgroundColor=none;fontColor=#FFFFFF;" vertex="1" parent="1">
                    <mxGeometry x="194" y="605" width="140" height="70" as="geometry"/>
                </mxCell>
                <mxCell id="18" value="accer à des statistique" style="ellipse;whiteSpace=wrap;html=1;labelBackgroundColor=none;fontColor=#FFFFFF;" vertex="1" parent="1">
                    <mxGeometry x="177" y="698" width="140" height="70" as="geometry"/>
                </mxCell>
                <mxCell id="19" value="gestion des&amp;nbsp; utilisateurs" style="ellipse;whiteSpace=wrap;html=1;labelBackgroundColor=none;fontColor=#FFFFFF;" vertex="1" parent="1">
                    <mxGeometry x="183" y="791" width="140" height="70" as="geometry"/>
                </mxCell>
                <mxCell id="20" value="gestion des evenement" style="ellipse;whiteSpace=wrap;html=1;labelBackgroundColor=none;fontColor=#FFFFFF;" vertex="1" parent="1">
                    <mxGeometry x="209" y="899" width="140" height="70" as="geometry"/>
                </mxCell>
                <mxCell id="21" value="Use Case" style="ellipse;whiteSpace=wrap;html=1;labelBackgroundColor=none;fontColor=#FFFFFF;" vertex="1" parent="1">
                    <mxGeometry x="199" y="974" width="140" height="70" as="geometry"/>
                </mxCell>
            </root>
        </mxGraphModel>
    </diagram>
</mxfile>